<svg xmlns="http://www.w3.org/2000/svg" xmlns:xlink="http://www.w3.org/1999/xlink" viewBox="0 0 430 430" width="430" height="430" preserveAspectRatio="xMidYMid meet" style="width: 100%; height: 100%; transform: translate3d(0px, 0px, 0px); content-visibility: visible;"><defs><clipPath id="__lottie_element_11222"><rect width="430" height="430" x="0" y="0"/></clipPath><clipPath id="__lottie_element_11224"><path d="M0,0 L430,0 L430,430 L0,430z"/></clipPath><clipPath id="__lottie_element_11385"><path d="M0,0 L430,0 L430,430 L0,430z"/></clipPath><clipPath id="__lottie_element_11402"><path d="M0,0 L430,0 L430,430 L0,430z"/></clipPath><clipPath id="__lottie_element_11418"><path d="M0,0 L430,0 L430,430 L0,430z"/></clipPath><clipPath id="__lottie_element_11422"><path d="M0,0 L430,0 L430,430 L0,430z"/></clipPath><g id="__lottie_element_11425"><g style="display: block;" transform="matrix(1,0,0,1,0,0)" opacity="1"><g opacity="1" transform="matrix(1,0,0,1,215,215)"><path fill="rgb(255,0,0)" fill-opacity="1" d=" M-158.7772674560547,-105.41177368164062 C-158.7772674560547,-105.41177368164062 -158.7772674560547,105.4258804321289 -158.7772674560547,105.4258804321289 C-158.7772674560547,105.4258804321289 -52.73384094238281,105.6982650756836 1.466670036315918,105.67176055908203 C55.010826110839844,105.62867736816406 159.16087341308594,105.29265594482422 159.16087341308594,105.29265594482422 C159.16087341308594,105.29265594482422 159.16087341308594,-105.25355529785156 159.16087341308594,-105.25355529785156 C159.16087341308594,-105.25355529785156 54.3525505065918,-105.37789154052734 0.49640974402427673,-105.44234466552734 C-53.37936019897461,-105.4806137084961 -158.7772674560547,-105.41177368164062 -158.7772674560547,-105.41177368164062z"/></g></g></g><filter id="__lottie_element_11428" filterUnits="objectBoundingBox" x="0%" y="0%" width="100%" height="100%"><feComponentTransfer in="SourceGraphic"><feFuncA type="table" tableValues="1.0 0.0"/></feComponentTransfer></filter><mask id="__lottie_element_11425_2" mask-type="alpha"><g filter="url(#__lottie_element_11428)"><rect width="430" height="430" x="0" y="0" fill="#ffffff" opacity="0"/><use xmlns:ns1="http://www.w3.org/1999/xlink" ns1:href="#__lottie_element_11425"/></g></mask><g id="__lottie_element_11432"><g transform="matrix(1,0,0,1,0,0)" opacity="1" style="display: block;"><g opacity="1" transform="matrix(1,0,0,1,215,215)"><path fill="rgb(255,0,0)" fill-opacity="1" d=" M531,-157 C531,-157 531,156.9459991455078 531,156.9459991455078 C531,156.9459991455078 406.10101318359375,157.11000061035156 343.6520080566406,157.11000061035156 C282.15899658203125,157.11000061035156 159.1719970703125,156.9459991455078 159.1719970703125,156.9459991455078 C159.1719970703125,156.9459991455078 159.1719970703125,-156.96099853515625 159.1719970703125,-156.96099853515625 C159.1719970703125,-156.96099853515625 282.8680114746094,-156.8300018310547 344.71600341796875,-156.83599853515625 C406.8110046386719,-156.8419952392578 531,-157 531,-157z"/></g></g></g><filter id="__lottie_element_11435" filterUnits="objectBoundingBox" x="0%" y="0%" width="100%" height="100%"><feComponentTransfer in="SourceGraphic"><feFuncA type="table" tableValues="1.0 0.0"/></feComponentTransfer></filter><mask id="__lottie_element_11432_2" mask-type="alpha"><g filter="url(#__lottie_element_11435)"><rect width="430" height="430" x="0" y="0" fill="#ffffff" opacity="0"/><use xmlns:ns2="http://www.w3.org/1999/xlink" ns2:href="#__lottie_element_11432"/></g></mask></defs><g clip-path="url(#__lottie_element_11222)"><g clip-path="url(#__lottie_element_11418)" transform="matrix(1,0,0,1,0,0)" opacity="1" style="display: none;"><g mask="url(#__lottie_element_11425_2)" style="display: none;"><g clip-path="url(#__lottie_element_11422)" transform="matrix(1,0,0,1,0,0)" opacity="1"><g mask="url(#__lottie_element_11432_2)" style="display: block;"><g transform="matrix(0.9998477101325989,0.017452392727136612,-0.017452392727136612,0.9998477101325989,626.2926025390625,150.73501586914062)" opacity="1"><g opacity="1" transform="matrix(1,0,0,1,0,0)"><path stroke-linecap="round" stroke-linejoin="round" fill-opacity="0" class="primary" stroke="rgb(18,19,49)" stroke-opacity="1" stroke-width="12.558" d=" M156.3509979248047,67.677001953125 C156.3509979248047,67.677001953125 108.18299865722656,56.94200134277344 108.18299865722656,56.94200134277344 C108.18299865722656,56.94200134277344 -161.6540069580078,-3.197999954223633 -161.6540069580078,-3.197999954223633 C-161.6540069580078,-3.197999954223633 -100.56999969482422,67.677001953125 -100.56999969482422,67.677001953125 C-100.56999969482422,67.677001953125 -164.71299743652344,138.94500732421875 -164.71299743652344,138.94500732421875 C-164.71299743652344,138.94500732421875 106.62300109863281,78.71499633789062 106.62300109863281,78.71499633789062 C106.62300109863281,78.71499633789062 156.3509979248047,67.677001953125 156.3509979248047,67.677001953125z"/></g><g opacity="1" transform="matrix(1,0,0,1,0,0)"><path stroke-linecap="round" stroke-linejoin="round" fill-opacity="0" class="primary" stroke="rgb(18,19,49)" stroke-opacity="1" stroke-width="12.558" d=" M156.3699951171875,67.4749984741211 C156.3699951171875,67.4749984741211 -100.56199645996094,67.47899627685547 -100.56199645996094,67.47899627685547"/></g></g></g></g></g><g transform="matrix(1,0,0,1,0,0)" opacity="1" style="display: block;"><g opacity="1" transform="matrix(1,0,0,1,215,215)"><path stroke-linecap="round" stroke-linejoin="round" fill-opacity="0" class="primary" stroke="rgb(18,19,49)" stroke-opacity="1" stroke-width="12.95" d=" M-158.7772674560547,-105.41177368164062 C-158.7772674560547,-105.41177368164062 -158.7772674560547,105.4258804321289 -158.7772674560547,105.4258804321289 C-158.7772674560547,105.4258804321289 -52.73384094238281,105.6982650756836 1.466670036315918,105.67176055908203 C55.010826110839844,105.62867736816406 159.16087341308594,105.29265594482422 159.16087341308594,105.29265594482422 C159.16087341308594,105.29265594482422 159.16087341308594,-105.25355529785156 159.16087341308594,-105.25355529785156 C159.16087341308594,-105.25355529785156 54.3525505065918,-105.37789154052734 0.49640974402427673,-105.44234466552734 C-53.37936019897461,-105.4806137084961 -158.7772674560547,-105.41177368164062 -158.7772674560547,-105.41177368164062z"/></g></g><g transform="matrix(1,0,0,1,0,0)" opacity="1" style="display: block;"><g opacity="1" transform="matrix(1,0,0,1,214.86099243164062,183.1739959716797)"><path stroke-linecap="round" stroke-linejoin="round" fill-opacity="0" class="primary" stroke="rgb(18,19,49)" stroke-opacity="1" stroke-width="12.95" d=" M-158.55181884765625,-72.86094665527344 C-158.55181884765625,-72.86094665527344 -25.92877960205078,59.81322479248047 -25.92877960205078,59.81322479248047 C-11.499621391296387,74.3245849609375 11.93310260772705,74.3265609741211 26.364238739013672,59.81622314453125 C26.364238739013672,59.81622314453125 158.9723663330078,-72.89122772216797 158.9723663330078,-72.89122772216797"/></g><g opacity="1" transform="matrix(1,0,0,1,215.79600524902344,254.22999572753906)"><path stroke-linecap="round" stroke-linejoin="round" fill-opacity="0" class="primary" stroke="rgb(18,19,49)" stroke-opacity="1" stroke-width="12.95" d=" M55.28316116333008,-41.10640335083008 C62.315181732177734,-37.33345413208008 69.14067840576172,-32.62078857421875 75.22242736816406,-27.284168243408203 C75.22242736816406,-27.284168243408203 158.2873992919922,45.98513412475586 158.2873992919922,45.98513412475586 M-158.78489685058594,45.67254638671875 C-158.78489685058594,45.67254638671875 -75.79359436035156,-27.37436294555664 -75.79359436035156,-27.37436294555664 C-69.88190460205078,-32.549556732177734 -63.276824951171875,-37.14126968383789 -56.464866638183594,-40.843605041503906"/></g></g></g><g clip-path="url(#__lottie_element_11402)" transform="matrix(1,0,0,1,0,0)" opacity="1" style="display: block;"><g transform="matrix(0.7741225361824036,-0.6330357789993286,0.6330357789993286,0.7741225361824036,221.53208923339844,115.57022857666016)" opacity="1" style="display: block;"><g opacity="1" transform="matrix(1,0,0,1,0,0)"><path stroke-linecap="round" stroke-linejoin="round" fill-opacity="0" class="primary" stroke="rgb(18,19,49)" stroke-opacity="1" stroke-width="12.558" d=" M156.35000610351562,67.677001953125 C156.35000610351562,67.677001953125 107.97899627685547,48.159000396728516 107.97899627685547,48.159000396728516 C107.97899627685547,48.159000396728516 -163.00100708007812,-61.18299865722656 -163.00100708007812,-61.18299865722656 C-163.00100708007812,-61.18299865722656 -100.56999969482422,67.677001953125 -100.56999969482422,67.677001953125 C-100.56999969482422,67.677001953125 -163.80099487304688,194.93800354003906 -163.80099487304688,194.93800354003906 C-163.80099487304688,194.93800354003906 106.76399993896484,87.38800048828125 106.76399993896484,87.38800048828125 C106.76399993896484,87.38800048828125 156.35000610351562,67.677001953125 156.35000610351562,67.677001953125z"/></g><g opacity="1" transform="matrix(1,0,0,1,0,0)"><path stroke-linecap="round" stroke-linejoin="round" fill-opacity="0" class="primary" stroke="rgb(18,19,49)" stroke-opacity="1" stroke-width="12.558" d=" M156.3699951171875,67.4749984741211 C156.3699951171875,67.4749984741211 -100.56199645996094,67.47899627685547 -100.56199645996094,67.47899627685547"/></g></g><g transform="matrix(0.7071067690849304,-0.7071067690849304,0.7071067690849304,0.7071067690849304,224.63465881347656,111.21406555175781)" opacity="1" style="display: block;"><g opacity="1" transform="matrix(1,0,0,1,0,0)"><path stroke-linecap="round" stroke-linejoin="round" fill-opacity="0" class="secondary" stroke="rgb(8,168,138)" stroke-opacity="1" stroke-width="12.558" d=" M-252.91000366210938,12.092000007629395 C-258.48199462890625,10.824999809265137 -263.7950134277344,9.618000030517578 -268.6780090332031,8.508000373840332 M-252.41000366210938,123.91300201416016 C-257.97601318359375,125.20500183105469 -263.2829895019531,126.43800354003906 -268.1610107421875,127.56999969482422"/></g><g opacity="1" transform="matrix(1,0,0,1,0,0)"><path stroke-linecap="round" stroke-linejoin="round" fill-opacity="0" class="secondary" stroke="rgb(8,168,138)" stroke-opacity="1" stroke-width="12.558" d=" M-277.260009765625,67.09600067138672 C-293.20001220703125,67.06500244140625 -304.2090148925781,67.04299926757812 -304.2090148925781,67.04299926757812"/></g></g><g transform="matrix(0.7193397879600525,-0.6946583986282349,0.6946583986282349,0.7193397879600525,217.77601623535156,119.36906433105469)" opacity="1" style="display: none;"><g opacity="1" transform="matrix(1,0,0,1,0,0)"><path stroke-linecap="round" stroke-linejoin="round" fill-opacity="0" class="secondary" stroke="rgb(8,168,138)" stroke-opacity="1" stroke-width="12.558" d=" M-222.0659942626953,19.101999282836914 C-238.48199462890625,15.371000289916992 -255.21400451660156,11.567999839782715 -268.6780090332031,8.508000373840332 M-221.5989990234375,116.76000213623047 C-237.9980010986328,120.56700134277344 -254.71200561523438,124.447998046875 -268.1610107421875,127.56999969482422"/></g><g opacity="1" transform="matrix(1,0,0,1,0,0)"><path stroke-linecap="round" stroke-linejoin="round" fill-opacity="0" class="secondary" stroke="rgb(8,168,138)" stroke-opacity="1" stroke-width="12.558" d=" M-224.5449981689453,67.20099639892578 C-262.9639892578125,67.125 -304.2090148925781,67.04299926757812 -304.2090148925781,67.04299926757812"/></g></g><g transform="matrix(0.7071067690849304,-0.7071067690849304,0.7071067690849304,0.7071067690849304,227.7487335205078,107.62092590332031)" opacity="1" style="display: none;"><g opacity="1" transform="matrix(1,0,0,1,0,0)"><path stroke-linecap="round" stroke-linejoin="round" fill-opacity="0" class="secondary" stroke="rgb(8,168,138)" stroke-opacity="1" stroke-width="12.558" d=" M-184.12899780273438,27.725000381469727 C-208.68800354003906,22.14299964904785 -244.11900329589844,14.09000015258789 -268.6780090332031,8.508000373840332 M-183.7030029296875,107.96199798583984 C-208.23500061035156,113.65699768066406 -243.62899780273438,121.875 -268.1610107421875,127.56999969482422"/></g><g opacity="1" transform="matrix(1,0,0,1,0,0)"><path stroke-linecap="round" stroke-linejoin="round" fill-opacity="0" class="secondary" stroke="rgb(8,168,138)" stroke-opacity="1" stroke-width="12.558" d=" M-159.70700073242188,67.3290023803711 C-159.70700073242188,67.3290023803711 -304.2090148925781,67.04299926757812 -304.2090148925781,67.04299926757812"/></g></g></g><g clip-path="url(#__lottie_element_11224)" transform="matrix(1,0,0,1,0,0)" opacity="1" style="display: none;"><g transform="matrix(-1.8903977870941162,3.4112162590026855,-3.4112162590026855,-1.8903977870941162,194.07090759277344,282.1298828125)" opacity="1" style="display: none;"><g opacity="1" transform="matrix(1,0,0,1,0,0)"><path stroke-linecap="round" stroke-linejoin="round" fill-opacity="0" class="secondary" stroke="rgb(8,168,138)" stroke-opacity="1" stroke-width="3.22" d=" M4.789000034332275,20.288999557495117 C4.789000034332275,20.288999557495117 17.274906158447266,20.27461814880371 17.274906158447266,20.27461814880371 C17.274906158447266,20.27461814880371 4.375,-45.625 4.375,-45.625"/></g></g><g transform="matrix(2.757716417312622,2.757716417312622,-2.757716417312622,2.757716417312622,235.34954833984375,172.57969665527344)" opacity="1" style="display: block;"><g opacity="1" transform="matrix(1,0,0,1,0,0)"><path stroke-linecap="round" stroke-linejoin="round" fill-opacity="0" class="secondary" stroke="rgb(8,168,138)" stroke-opacity="1" stroke-width="3.22" d="M0 0"/></g></g><g transform="matrix(-1.8903977870941162,3.4112162590026855,-3.4112162590026855,-1.8903977870941162,194.07090759277344,282.1298828125)" opacity="1" style="display: none;"><g opacity="1" transform="matrix(1,0,0,1,0,0)"><path stroke-linecap="round" stroke-linejoin="round" fill-opacity="0" class="primary" stroke="rgb(18,19,49)" stroke-opacity="1" stroke-width="3.22" d=" M5.835000038146973,9.883000373840332 C6.193999767303467,24.437999725341797 6.48199987411499,36.137001037597656 6.48199987411499,36.137001037597656 C6.482320308685303,36.13748550415039 4.462499618530273,20.1302490234375 4.462499618530273,20.1302490234375 C4.462499618530273,20.1302490234375 2.4683501720428467,36.34248352050781 2.4683501720428467,36.34248352050781 C2.4683501720428467,36.34248352050781 4.462499618530273,-45.74674987792969 4.462499618530273,-45.74674987792969"/></g><g opacity="1" transform="matrix(1,0,0,1,0,0)"><path stroke-linecap="round" stroke-linejoin="round" fill-opacity="0" class="primary" stroke="rgb(18,19,49)" stroke-opacity="1" stroke-width="3.22" d=" M4.472033500671387,-45.748626708984375 C4.472033500671387,-45.748626708984375 4.470736026763916,20.123716354370117 4.470736026763916,20.123716354370117"/></g></g><g transform="matrix(2.757716417312622,2.757716417312622,-2.757716417312622,2.757716417312622,235.34954833984375,172.57969665527344)" opacity="1" style="display: block;"><g opacity="1" transform="matrix(1,0,0,1,0,0)"><path stroke-linecap="round" stroke-linejoin="round" fill-opacity="0" class="primary" stroke="rgb(18,19,49)" stroke-opacity="1" stroke-width="3.22" d=" M3.9159998893737793,-45.84000015258789 C3.9159998893737793,-45.84000015258789 -29.125,36.04499816894531 -29.125,36.04499816894531 C-29.125,36.04499816894531 3.9159998893737793,20.03700065612793 3.9159998893737793,20.03700065612793 C3.9159998893737793,20.03700065612793 36.547000885009766,36.25 36.547000885009766,36.25 C36.547000885009766,36.25 3.9159998893737793,-45.84000015258789 3.9159998893737793,-45.84000015258789z"/></g><g opacity="1" transform="matrix(1,0,0,1,0,0)"><path stroke-linecap="round" stroke-linejoin="round" fill-opacity="0" class="primary" stroke="rgb(18,19,49)" stroke-opacity="1" stroke-width="3.22" d=" M3.946000099182129,-45.840999603271484 C3.946000099182129,-45.840999603271484 4.057000160217285,19.909000396728516 4.057000160217285,19.909000396728516"/></g></g><g transform="matrix(1.4073779582977295,3.637208938598633,-3.637208938598633,1.4073779582977295,217.837890625,200.04122924804688)" opacity="1" style="display: none;"><g opacity="1" transform="matrix(1,0,0,1,0,0)"><path stroke-linecap="round" stroke-linejoin="round" fill-opacity="0" class="primary" stroke="rgb(18,19,49)" stroke-opacity="1" stroke-width="3.22" d=" M5.01200008392334,-4.258999824523926 C5.2870001792907715,16.027999877929688 5.559999942779541,36.1349983215332 5.559999942779541,36.1349983215332 C5.559924602508545,36.13508987426758 4.448342800140381,20.127832412719727 4.448342800140381,20.127832412719727 C4.448342800140381,20.127832412719727 3.3511459827423096,36.340087890625 3.3511459827423096,36.340087890625 C3.3511459827423096,36.340087890625 4.448342800140381,-45.749168395996094 4.448342800140381,-45.749168395996094"/></g><g opacity="1" transform="matrix(1,0,0,1,0,0)"><path stroke-linecap="round" stroke-linejoin="round" fill-opacity="0" class="secondary" stroke="rgb(8,168,138)" stroke-opacity="1" stroke-width="3.22" d=" M4.587547302246094,-45.7216911315918 C4.587547302246094,-45.7216911315918 4.598986625671387,20.198410034179688 4.598986625671387,20.198410034179688"/></g></g><g transform="matrix(1.4073779582977295,3.637208938598633,-3.637208938598633,1.4073779582977295,217.837890625,200.04122924804688)" opacity="1" style="display: none;"><g opacity="1" transform="matrix(1,0,0,1,0,0)"><path stroke-linecap="round" stroke-linejoin="round" fill-opacity="0" class="secondary" stroke="rgb(8,168,138)" stroke-opacity="1" stroke-width="3.22" d=" M4.789000034332275,20.288999557495117 C4.789000034332275,20.288999557495117 20.391740798950195,19.132251739501953 20.391740798950195,19.132251739501953 C20.391740798950195,19.132251739501953 4.375,-45.625 4.375,-45.625"/></g></g></g><g clip-path="url(#__lottie_element_11385)" transform="matrix(1,0,0,1,0,0)" opacity="1" style="display: none;"><g transform="matrix(2.757716417312622,2.757716417312622,-2.757716417312622,2.757716417312622,236.26153564453125,172.49468994140625)" opacity="1" style="display: block;"><g opacity="1" transform="matrix(1,0,0,1,0,0)"><path stroke-linecap="round" stroke-linejoin="round" fill-opacity="0" class="secondary" stroke="rgb(8,168,138)" stroke-opacity="1" stroke-width="3.22" d="M0 0"/></g></g><g transform="matrix(2.757716417312622,2.757716417312622,-2.757716417312622,2.757716417312622,236.26153564453125,172.49468994140625)" opacity="1" style="display: block;"><g opacity="1" transform="matrix(1,0,0,1,0,0)"><path stroke-linecap="round" stroke-linejoin="round" fill-opacity="0" class="primary" stroke="rgb(18,19,49)" stroke-opacity="1" stroke-width="3.22" d=" M3.9159998893737793,-45.84000015258789 C3.9159998893737793,-45.84000015258789 -29.125,36.04499816894531 -29.125,36.04499816894531 C-29.125,36.04499816894531 3.9159998893737793,20.03700065612793 3.9159998893737793,20.03700065612793 C3.9159998893737793,20.03700065612793 36.547000885009766,36.25 36.547000885009766,36.25 C36.547000885009766,36.25 3.9159998893737793,-45.84000015258789 3.9159998893737793,-45.84000015258789z"/></g><g opacity="1" transform="matrix(1,0,0,1,0,0)"><path stroke-linecap="round" stroke-linejoin="round" fill-opacity="0" class="primary" stroke="rgb(18,19,49)" stroke-opacity="1" stroke-width="3.22" d=" M3.946000099182129,-45.840999603271484 C3.946000099182129,-45.840999603271484 4.057000160217285,19.909000396728516 4.057000160217285,19.909000396728516"/></g></g><g transform="matrix(-1.9740840196609497,3.3634793758392334,-3.3634793758392334,-1.9740840196609497,190.46112060546875,210.83987426757812)" opacity="1" style="display: none;"><g opacity="1" transform="matrix(1,0,0,1,0,0)"><path stroke-linecap="round" stroke-linejoin="round" fill-opacity="0" class="primary" stroke="rgb(18,19,49)" stroke-opacity="1" stroke-width="3.22" d=" M4.664999961853027,-4.3520002365112305 C4.776000022888184,15.965999603271484 4.88700008392334,36.132999420166016 4.88700008392334,36.132999420166016 C4.8865814208984375,36.13309097290039 4.438381195068359,20.12609100341797 4.438381195068359,20.12609100341797 C4.438381195068359,20.12609100341797 3.995311737060547,36.33808898925781 3.995311737060547,36.33808898925781 C3.995311737060547,36.33808898925781 4.438381195068359,-45.75090789794922 4.438381195068359,-45.75090789794922"/></g><g opacity="1" transform="matrix(1,0,0,1,0,0)"><path stroke-linecap="round" stroke-linejoin="round" fill-opacity="0" class="secondary" stroke="rgb(8,168,138)" stroke-opacity="1" stroke-width="3.22" d=" M4.5862345695495605,-45.72185516357422 C4.5862345695495605,-45.72185516357422 4.597270965576172,20.198253631591797 4.597270965576172,20.198253631591797"/></g></g><g transform="matrix(-1.9740840196609497,3.3634793758392334,-3.3634793758392334,-1.9740840196609497,190.46112060546875,210.83987426757812)" opacity="1" style="display: none;"><g opacity="1" transform="matrix(1,0,0,1,0,0)"><path stroke-linecap="round" stroke-linejoin="round" fill-opacity="0" class="secondary" stroke="rgb(8,168,138)" stroke-opacity="1" stroke-width="3.22" d=" M4.789000034332275,20.288999557495117 C4.789000034332275,20.288999557495117 20.430334091186523,19.12249183654785 20.430334091186523,19.12249183654785 C20.430334091186523,19.12249183654785 4.375,-45.625 4.375,-45.625"/></g></g></g></g></svg>